<svg xmlns="http://www.w3.org/2000/svg" width="21.589" height="19.37" viewBox="0 0 21.589 19.37"><g transform="translate(0 -26.315)"><g transform="translate(0 26.315)"><g transform="translate(0 0)"><path d="M21.245,41.877,12.993,27.584a2.539,2.539,0,0,0-4.4,0L.344,41.877a2.539,2.539,0,0,0,2.2,3.808h16.5a2.539,2.539,0,0,0,2.2-3.808Zm-1.1,1.906a1.261,1.261,0,0,1-1.1.637H2.542a1.274,1.274,0,0,1-1.1-1.911L9.691,28.217a1.274,1.274,0,0,1,2.206,0L20.15,42.51A1.261,1.261,0,0,1,20.15,43.783Z" transform="translate(0 -26.315)" fill="#fff"/></g></g><g transform="translate(10.162 32.627)"><g transform="translate(0 0)"><rect width="1.265" height="6.324" fill="#fff"/></g></g><g transform="translate(9.951 40.216)"><g transform="translate(0 0)"><path d="M236.845,355.99a.843.843,0,1,0,.843.843A.844.844,0,0,0,236.845,355.99Z" transform="translate(-236.002 -355.99)" fill="#fff"/></g></g></g></svg>